<svg width="30" height="30" viewBox="0 0 30 30" fill="none" xmlns="http://www.w3.org/2000/svg">
<path d="M14 13.5C13.8583 13.5 13.7397 13.452 13.644 13.356C13.5483 13.26 13.5003 13.1413 13.5 13C13.4997 12.8587 13.5477 12.74 13.644 12.644C13.7403 12.548 13.859 12.5 14 12.5H16C16.1417 12.5 16.2605 12.548 16.3565 12.644C16.4525 12.74 16.5003 12.8587 16.5 13C16.4997 13.1413 16.4517 13.2602 16.356 13.3565C16.2603 13.4528 16.1417 13.5007 16 13.5H14ZM15.3565 18.8565C15.4522 18.7605 15.5 18.6417 15.5 18.5V16.5C15.5 16.3583 15.452 16.2397 15.356 16.144C15.26 16.0483 15.1413 16.0003 15 16C14.8587 15.9997 14.74 16.0477 14.644 16.144C14.548 16.2403 14.5 16.359 14.5 16.5V18.5C14.5 18.6417 14.548 18.7605 14.644 18.8565C14.74 18.9525 14.8587 19.0003 15 19C15.1413 18.9997 15.2602 18.9517 15.3565 18.856M13.2565 22.644C12.7105 22.4063 12.2333 22.0833 11.825 21.675C11.4167 21.2667 11.0938 20.7895 10.8565 20.2435C10.6192 19.6975 10.5003 19.1163 10.5 18.5C10.4997 17.8837 10.6185 17.3023 10.8565 16.756C11.0945 16.2097 11.4173 15.7327 11.825 15.325C12.2327 14.9173 12.7098 14.5945 13.2565 14.3565C13.8032 14.1185 14.3843 13.9997 15 14C15.5167 14 16.0125 14.0833 16.4875 14.25C16.9625 14.4167 17.4083 14.6583 17.825 14.975L18.175 14.625C18.2667 14.5333 18.3833 14.4875 18.525 14.4875C18.6667 14.4875 18.7833 14.5333 18.875 14.625C18.9667 14.7167 19.0125 14.8333 19.0125 14.975C19.0125 15.1167 18.9667 15.2333 18.875 15.325L18.525 15.675C18.8417 16.0917 19.0833 16.5375 19.25 17.0125C19.4167 17.4875 19.5 17.9833 19.5 18.5C19.5 19.1167 19.3812 19.698 19.1435 20.244C18.9058 20.79 18.583 21.267 18.175 21.675C17.767 22.083 17.2898 22.406 16.7435 22.644C16.1972 22.882 15.616 23.0007 15 23C14.384 22.9993 13.8032 22.8807 13.2565 22.644ZM17.475 20.975C18.1583 20.2917 18.5 19.4667 18.5 18.5C18.5 17.5333 18.1583 16.7083 17.475 16.025C16.7917 15.3417 15.9667 15 15 15C14.0333 15 13.2083 15.3417 12.525 16.025C11.8417 16.7083 11.5 17.5333 11.5 18.5C11.5 19.4667 11.8417 20.2917 12.525 20.975C13.2083 21.6583 14.0333 22 15 22C15.9667 22 16.7917 21.6583 17.475 20.975Z" fill="#1ABC9C"/>
<path d="M12.5 7.5H17.5C20 7.5 20 6.25 20 5C20 2.5 18.75 2.5 17.5 2.5H12.5C11.25 2.5 10 2.5 10 5C10 7.5 11.25 7.5 12.5 7.5Z" stroke="#1ABC9C" stroke-width="1.5" stroke-miterlimit="10" stroke-linecap="round" stroke-linejoin="round"/>
<path d="M20 5.0249C24.1625 5.2499 26.25 6.7874 26.25 12.4999V19.9999C26.25 24.9999 25 27.4999 18.75 27.4999H11.25C5 27.4999 3.75 24.9999 3.75 19.9999V12.4999C3.75 6.7999 5.8375 5.2499 10 5.0249" stroke="#1ABC9C" stroke-width="1.5" stroke-miterlimit="10" stroke-linecap="round" stroke-linejoin="round"/>
</svg>
