<svg width="30" height="30" viewBox="0 0 30 30" fill="none" xmlns="http://www.w3.org/2000/svg">
<path d="M20.5303 15.7197C20.2374 15.4268 19.7626 15.4268 19.4697 15.7197C19.1768 16.0126 19.1768 16.4874 19.4697 16.7803L20 16.25L20.5303 15.7197ZM23.75 20L24.2803 20.5303C24.5732 20.2374 24.5732 19.7626 24.2803 19.4697L23.75 20ZM19.4697 23.2197C19.1768 23.5126 19.1768 23.9874 19.4697 24.2803C19.7626 24.5732 20.2374 24.5732 20.5303 24.2803L20 23.75L19.4697 23.2197ZM6.25 19.25C5.83579 19.25 5.5 19.5858 5.5 20C5.5 20.4142 5.83579 20.75 6.25 20.75V20V19.25ZM9.46967 14.2803C9.76256 14.5732 10.2374 14.5732 10.5303 14.2803C10.8232 13.9874 10.8232 13.5126 10.5303 13.2197L10 13.75L9.46967 14.2803ZM6.25 10L5.71967 9.46967C5.42678 9.76256 5.42678 10.2374 5.71967 10.5303L6.25 10ZM10.5303 6.78033C10.8232 6.48744 10.8232 6.01256 10.5303 5.71967C10.2374 5.42678 9.76256 5.42678 9.46967 5.71967L10 6.25L10.5303 6.78033ZM23.75 10.75C24.1642 10.75 24.5 10.4142 24.5 10C24.5 9.58579 24.1642 9.25 23.75 9.25V10V10.75ZM20 16.25L19.4697 16.7803L23.2197 20.5303L23.75 20L24.2803 19.4697L20.5303 15.7197L20 16.25ZM23.75 20L23.2197 19.4697L19.4697 23.2197L20 23.75L20.5303 24.2803L24.2803 20.5303L23.75 20ZM6.25 20V20.75H23.75V20V19.25H6.25V20ZM10 13.75L10.5303 13.2197L6.78033 9.46967L6.25 10L5.71967 10.5303L9.46967 14.2803L10 13.75ZM6.25 10L6.78033 10.5303L10.5303 6.78033L10 6.25L9.46967 5.71967L5.71967 9.46967L6.25 10ZM23.75 10V9.25H6.25V10V10.75H23.75V10Z" fill="#1ABC9C"/>
</svg>
