<svg width="30" height="30" viewBox="0 0 30 30" fill="none" xmlns="http://www.w3.org/2000/svg">
<path d="M15 18.6388L12.7643 20.8745C12.6806 20.9582 12.5741 21 12.4449 21C12.3156 21 12.2091 20.9582 12.1255 20.8745C12.0418 20.7909 12 20.6844 12 20.5551C12 20.4259 12.0418 20.3194 12.1255 20.2357L14.3612 18L12.1255 15.7643C12.0418 15.6806 12 15.5741 12 15.4449C12 15.3156 12.0418 15.2091 12.1255 15.1255C12.2091 15.0418 12.3156 15 12.4449 15C12.5741 15 12.6806 15.0418 12.7643 15.1255L15 17.3612L17.2357 15.1255C17.3194 15.0418 17.4259 15 17.5551 15C17.6844 15 17.7909 15.0418 17.8745 15.1255C17.9582 15.2091 18 15.3156 18 15.4449C18 15.5741 17.9582 15.6806 17.8745 15.7643L15.6388 18L17.8745 20.2357C17.9582 20.3194 18 20.4259 18 20.5551C18 20.6844 17.9582 20.7909 17.8745 20.8745C17.7909 20.9582 17.6844 21 17.5551 21C17.4259 21 17.3194 20.9582 17.2357 20.8745L15 18.6388Z" fill="#1ABC9C"/>
<path d="M12.5 7.5H17.5C20 7.5 20 6.25 20 5C20 2.5 18.75 2.5 17.5 2.5H12.5C11.25 2.5 10 2.5 10 5C10 7.5 11.25 7.5 12.5 7.5Z" stroke="#1ABC9C" stroke-width="1.5" stroke-miterlimit="10" stroke-linecap="round" stroke-linejoin="round"/>
<path d="M20 5.0249C24.1625 5.2499 26.25 6.7874 26.25 12.4999V19.9999C26.25 24.9999 25 27.4999 18.75 27.4999H11.25C5 27.4999 3.75 24.9999 3.75 19.9999V12.4999C3.75 6.7999 5.8375 5.2499 10 5.0249" stroke="#1ABC9C" stroke-width="1.5" stroke-miterlimit="10" stroke-linecap="round" stroke-linejoin="round"/>
</svg>
