<svg width="60" height="60" viewBox="0 0 60 60" fill="none" xmlns="http://www.w3.org/2000/svg">
<path d="M23.275 36.75L27.025 40.5L37.025 30.5" stroke="#1ABC9C" stroke-width="1.5" stroke-linecap="round" stroke-linejoin="round"/>
<path d="M25 15H35C40 15 40 12.5 40 10C40 5 37.5 5 35 5H25C22.5 5 20 5 20 10C20 15 22.5 15 25 15Z" stroke="#1ABC9C" stroke-width="1.5" stroke-miterlimit="10" stroke-linecap="round" stroke-linejoin="round"/>
<path d="M40 10.05C48.325 10.5 52.5 13.575 52.5 25V40C52.5 50 50 55 37.5 55H22.5C10 55 7.5 50 7.5 40V25C7.5 13.6 11.675 10.5 20 10.05" stroke="#1ABC9C" stroke-width="1.5" stroke-miterlimit="10" stroke-linecap="round" stroke-linejoin="round"/>
</svg>
