<svg width="60" height="60" viewBox="0 0 60 60" fill="none" xmlns="http://www.w3.org/2000/svg">
<path d="M22.9 27.175C22.65 27.15 22.35 27.15 22.075 27.175C16.125 26.975 11.4 22.1 11.4 16.1C11.4 9.975 16.35 5 22.5 5C28.625 5 33.6 9.975 33.6 16.1C33.575 22.1 28.85 26.975 22.9 27.175Z" stroke="#1ABC9C" stroke-width="1.5" stroke-linecap="round" stroke-linejoin="round"/>
<path d="M41.025 10C45.875 10 49.775 13.925 49.775 18.75C49.775 23.475 46.025 27.325 41.35 27.5C41.15 27.475 40.925 27.475 40.7 27.5" stroke="#1ABC9C" stroke-width="1.5" stroke-linecap="round" stroke-linejoin="round"/>
<path d="M10.4 36.4C4.34999 40.45 4.34999 47.05 10.4 51.075C17.275 55.675 28.55 55.675 35.425 51.075C41.475 47.025 41.475 40.425 35.425 36.4C28.575 31.825 17.3 31.825 10.4 36.4Z" stroke="#1ABC9C" stroke-width="1.5" stroke-linecap="round" stroke-linejoin="round"/>
<path d="M45.85 50C47.65 49.625 49.35 48.9 50.75 47.825C54.65 44.9 54.65 40.075 50.75 37.15C49.375 36.1 47.7 35.4 45.925 35" stroke="#1ABC9C" stroke-width="1.5" stroke-linecap="round" stroke-linejoin="round"/>
</svg>
