<svg width="30" height="30" viewBox="0 0 30 30" fill="none" xmlns="http://www.w3.org/2000/svg">
<g clip-path="url(#clip0_1350_92448)">
<path fill-rule="evenodd" clip-rule="evenodd" d="M15.1098 12.0012C14.3823 11.9854 13.6601 12.1285 12.9937 12.4206C12.3272 12.7127 11.7326 13.1468 11.2513 13.6925C10.7699 14.2382 10.4135 14.8824 10.2068 15.5801C10.0002 16.2778 9.94832 17.0121 10.0548 17.732C10.1614 18.4518 10.4237 19.1396 10.8236 19.7476C11.2234 20.3555 11.7512 20.8689 12.3699 21.2518C12.9887 21.6347 13.6835 21.8779 14.406 21.9645C15.1285 22.0511 15.8612 21.9789 16.5529 21.7531C16.6711 21.7144 16.7691 21.6304 16.8253 21.5196C16.8816 21.4087 16.8915 21.28 16.8529 21.1618C16.8143 21.0436 16.7303 20.9456 16.6194 20.8894C16.5085 20.8331 16.3798 20.8232 16.2616 20.8618C15.51 21.1073 14.703 21.128 13.9397 20.9215C13.1764 20.715 12.4899 20.2902 11.9645 19.6992C11.4391 19.1083 11.0976 18.3768 10.9819 17.5946C10.8661 16.8124 10.9812 16.0134 11.3129 15.2956C11.6447 14.5778 12.1787 13.9724 12.8495 13.5537C13.5203 13.135 14.2987 12.9212 15.0892 12.9384C15.8798 12.9557 16.6481 13.2033 17.3 13.6508C17.9519 14.0984 18.459 14.7265 18.7591 15.4581C18.8063 15.5731 18.8972 15.6647 19.0119 15.7127C19.0687 15.7365 19.1296 15.7488 19.1912 15.749C19.2527 15.7492 19.3137 15.7373 19.3707 15.714C19.4277 15.6906 19.4795 15.6563 19.5232 15.6129C19.5668 15.5696 19.6016 15.518 19.6253 15.4612C19.6491 15.4044 19.6614 15.3435 19.6617 15.282C19.6619 15.2204 19.65 15.1594 19.6266 15.1024C19.2573 14.202 18.6332 13.4289 17.8308 12.878C17.0285 12.3272 16.0828 12.0224 15.1098 12.0012ZM15.4691 14.3437C15.4691 14.2194 15.4198 14.1001 15.3318 14.0122C15.2439 13.9243 15.1247 13.8749 15.0004 13.8749C14.8761 13.8749 14.7568 13.9243 14.6689 14.0122C14.581 14.1001 14.5316 14.2194 14.5316 14.3437V16.8062L13.2604 18.0768C13.2143 18.1197 13.1774 18.1715 13.1518 18.229C13.1262 18.2865 13.1124 18.3485 13.1113 18.4115C13.1102 18.4744 13.1217 18.5369 13.1453 18.5953C13.1689 18.6537 13.204 18.7067 13.2485 18.7512C13.293 18.7957 13.346 18.8308 13.4044 18.8544C13.4628 18.878 13.5253 18.8895 13.5882 18.8884C13.6512 18.8873 13.7132 18.8735 13.7707 18.8479C13.8282 18.8223 13.88 18.7854 13.9229 18.7393L15.3316 17.3312L15.4691 17.1937V14.3437ZM19.3754 21.3749C19.3754 21.5407 19.3095 21.6997 19.1923 21.8169C19.0751 21.9341 18.9162 21.9999 18.7504 21.9999C18.5846 21.9999 18.4257 21.9341 18.3084 21.8169C18.1912 21.6997 18.1254 21.5407 18.1254 21.3749C18.1254 21.2092 18.1912 21.0502 18.3084 20.933C18.4257 20.8158 18.5846 20.7499 18.7504 20.7499C18.9162 20.7499 19.0751 20.8158 19.1923 20.933C19.3095 21.0502 19.3754 21.2092 19.3754 21.3749ZM19.2191 17.4687C19.2191 17.3444 19.1698 17.2251 19.0818 17.1372C18.9939 17.0493 18.8747 16.9999 18.7504 16.9999C18.6261 16.9999 18.5068 17.0493 18.4189 17.1372C18.331 17.2251 18.2816 17.3444 18.2816 17.4687V19.6562C18.2816 19.7805 18.331 19.8997 18.4189 19.9876C18.5068 20.0755 18.6261 20.1249 18.7504 20.1249C18.8747 20.1249 18.9939 20.0755 19.0818 19.9876C19.1698 19.8997 19.2191 19.7805 19.2191 19.6562V17.4687Z" fill="#1ABC9C"/>
</g>
<path d="M12.5 7.5H17.5C20 7.5 20 6.25 20 5C20 2.5 18.75 2.5 17.5 2.5H12.5C11.25 2.5 10 2.5 10 5C10 7.5 11.25 7.5 12.5 7.5Z" stroke="#1ABC9C" stroke-width="1.5" stroke-miterlimit="10" stroke-linecap="round" stroke-linejoin="round"/>
<path d="M20 5.0249C24.1625 5.2499 26.25 6.7874 26.25 12.4999V19.9999C26.25 24.9999 25 27.4999 18.75 27.4999H11.25C5 27.4999 3.75 24.9999 3.75 19.9999V12.4999C3.75 6.7999 5.8375 5.2499 10 5.0249" stroke="#1ABC9C" stroke-width="1.5" stroke-miterlimit="10" stroke-linecap="round" stroke-linejoin="round"/>
<defs>
<clipPath id="clip0_1350_92448">
<rect width="10" height="10" fill="white" transform="translate(10 12)"/>
</clipPath>
</defs>
</svg>
