<svg width="22" height="21" viewBox="0 0 22 21" fill="none" xmlns="http://www.w3.org/2000/svg">
<path d="M19.3465 7.35073L18.9803 7.14701C18.9235 7.11537 18.895 7.09949 18.8675 7.08304C18.5944 6.91946 18.3645 6.69303 18.1965 6.42262C18.1796 6.39541 18.163 6.36729 18.1304 6.3109L18.1303 6.31069C18.0978 6.25436 18.0814 6.22604 18.0663 6.19779C17.9156 5.91647 17.8345 5.60321 17.8296 5.28412C17.8292 5.25533 17.8297 5.22587 17.8306 5.17302L17.8309 5.15397L17.8379 4.73697C17.8495 4.05094 17.8552 3.70798 17.7591 3.40042C17.6742 3.12834 17.5322 2.8775 17.3425 2.66483C17.1283 2.42484 16.8314 2.25374 16.2389 1.91234L16.2359 1.91057L15.742 1.62601C15.1492 1.28438 14.8527 1.11364 14.5379 1.04849C14.2595 0.990865 13.972 0.993169 13.6945 1.05545C13.3817 1.12567 13.0892 1.30083 12.5051 1.65055L12.5007 1.65323L12.1468 1.86509C12.0909 1.89859 12.0626 1.9153 12.0345 1.93089C11.7562 2.08561 11.4451 2.1717 11.1269 2.18192C11.0948 2.18295 11.0622 2.18295 10.9969 2.18295H10.9961C10.9313 2.18295 10.899 2.18295 10.867 2.18192C10.5481 2.17166 10.236 2.08518 9.95725 1.92982C9.93019 1.91473 9.90328 1.89858 9.8512 1.86731L9.84519 1.86371L9.48911 1.64993L9.48643 1.64833C8.89886 1.29558 8.6048 1.11904 8.29038 1.04849C8.01181 0.985992 7.72286 0.983897 7.4434 1.04227C7.12749 1.10825 6.83009 1.28083 6.23557 1.62589L5.7479 1.90892C5.15646 2.25218 4.86117 2.42374 4.64781 2.6639C4.45904 2.87636 4.31766 3.12662 4.23321 3.39798C4.13776 3.70472 4.14314 4.04664 4.15464 4.73038L4.16179 5.15504C4.16287 5.21935 4.16359 5.25152 4.16312 5.28315C4.15839 5.60289 4.07697 5.91682 3.92585 6.19864C3.91091 6.22651 3.89481 6.25438 3.86265 6.31006C3.83047 6.36577 3.8144 6.39356 3.79771 6.42044C3.62898 6.69229 3.39751 6.91979 3.1227 7.08365C3.09552 7.09986 3.06761 7.11545 3.01132 7.14664L2.64976 7.34701L2.64963 7.34708C2.04815 7.6804 1.74746 7.84703 1.52866 8.08443C1.33509 8.29446 1.18852 8.54353 1.09926 8.81485C0.998488 9.12115 0.999268 9.46456 1.00083 10.1505L1.00083 10.1532L1.00211 10.7154L1.00212 10.7214C1.00367 11.4006 1.00444 11.741 1.10526 12.0447C1.19473 12.3142 1.34057 12.5615 1.53306 12.7703C1.7504 13.006 2.04868 13.1719 2.64439 13.5033L2.64634 13.5044L3.00468 13.7038L3.00965 13.7065C3.06735 13.7386 3.09711 13.7552 3.1257 13.7724C3.39802 13.9364 3.627 14.163 3.79429 14.4333C3.81236 14.4625 3.8297 14.4928 3.86438 14.5533L3.8644 14.5534C3.89867 14.6132 3.916 14.6432 3.93185 14.6732C4.07852 14.9509 4.15778 15.2592 4.16313 15.5732C4.16371 15.6071 4.16317 15.6416 4.16201 15.7106L4.15513 16.1181L4.1551 16.1196C4.14354 16.8047 4.13775 17.1474 4.2337 17.4548C4.31865 17.7269 4.46095 17.9777 4.65074 18.1903C4.86526 18.4308 5.16217 18.6021 5.75669 18.9447L6.2504 19.2292C6.84325 19.5709 7.14011 19.7416 7.45485 19.8067C7.7333 19.8644 8.02075 19.862 8.2982 19.7997C8.61114 19.7295 8.90375 19.5543 9.48831 19.2042L9.49204 19.202L9.84587 18.9901C9.90184 18.9566 9.93001 18.9399 9.95805 18.9243C10.2363 18.7696 10.5473 18.6835 10.8656 18.6733C10.8977 18.6723 10.9303 18.6723 10.9955 18.6723C11.0609 18.6723 11.094 18.6723 11.1262 18.6733C11.4451 18.6836 11.7568 18.77 12.0355 18.9253C12.0636 18.941 12.0917 18.9578 12.1478 18.9915L12.5039 19.2053L12.5045 19.2056C13.0935 19.5592 13.3879 19.736 13.7027 19.8066C13.9813 19.8691 14.2697 19.8713 14.5492 19.813C14.8651 19.747 15.1627 19.5744 15.7572 19.2294L16.2448 18.9463C16.8363 18.6031 17.1316 18.4315 17.345 18.1913C17.5338 17.9789 17.6752 17.7286 17.7596 17.4573C17.8551 17.1505 17.8496 16.8086 17.8381 16.1249L17.8309 15.7002L17.8305 15.6787C17.8297 15.6283 17.8292 15.6001 17.8296 15.5722C17.8343 15.2524 17.9156 14.9384 18.0668 14.6566C18.0817 14.6288 18.0978 14.6009 18.1298 14.5454L18.13 14.5452C18.1621 14.4895 18.1785 14.4616 18.1952 14.4347C18.3639 14.1629 18.5952 13.9355 18.87 13.7716C18.8963 13.756 18.9236 13.7408 18.9763 13.7116L18.9818 13.7086L19.3434 13.5082C19.9449 13.1748 20.2455 13.0082 20.4643 12.7708C20.6579 12.5608 20.8041 12.3117 20.8934 12.0404C20.9943 11.7337 20.9939 11.3898 20.9923 10.7021L20.9911 10.1399C20.9895 9.45675 20.9887 9.11508 20.8876 8.81046C20.7981 8.54096 20.6521 8.29365 20.4596 8.08489C20.2421 7.84892 19.9436 7.68285 19.3465 7.35073Z" stroke="#1ABC9C" stroke-width="2" stroke-linecap="round" stroke-linejoin="round"/>
</svg>
