<svg width="40" height="20" viewBox="0 0 40 20" fill="none" xmlns="http://www.w3.org/2000/svg">
<path opacity="0.4" d="M30.8333 10.5417V13.6251C30.8333 16.2251 25.9833 18.3334 20 18.3334C14.0167 18.3334 9.16666 16.2251 9.16666 13.6251V10.5417C9.16666 13.1417 14.0167 15.0001 20 15.0001C25.9833 15.0001 30.8333 13.1417 30.8333 10.5417Z" stroke="#1ABC9C" stroke-width="1.5" stroke-linecap="round" stroke-linejoin="round"/>
<path d="M30.8333 6.37508C30.8333 7.13342 30.4167 7.83341 29.6833 8.43341C27.9 9.90008 24.2333 10.8334 20 10.8334C15.7667 10.8334 12.1 9.90008 10.3167 8.43341C9.58333 7.83341 9.16666 7.13342 9.16666 6.37508C9.16666 5.07508 10.3833 3.90008 12.3333 3.05008C14.3 2.19175 17 1.66675 20 1.66675C23 1.66675 25.7 2.19175 27.6667 3.04175C29.6167 3.90008 30.8333 5.07508 30.8333 6.37508Z" stroke="#1ABC9C" stroke-width="1.5" stroke-linecap="round" stroke-linejoin="round"/>
<path d="M30.8333 6.37508V10.5417C30.8333 13.1417 25.9833 15.0001 20 15.0001C14.0167 15.0001 9.16666 13.1417 9.16666 10.5417V6.37508C9.16666 3.77508 14.0167 1.66675 20 1.66675C23 1.66675 25.7 2.19175 27.6667 3.04175C29.6167 3.90008 30.8333 5.07508 30.8333 6.37508Z" stroke="#1ABC9C" stroke-width="1.5" stroke-linecap="round" stroke-linejoin="round"/>
</svg>
